<?xml version="1.0" encoding="UTF-8" standalone="no"?>
<svg width="100%" height="100%" viewBox="0 0 100 125" version="1.1" xmlns="http://www.w3.org/2000/svg" style="fill-rule:evenodd;clip-rule:evenodd;stroke-linejoin:round;stroke-miterlimit:2;">
  <style>
    /* Default for Light Mode */
    .icon-path { 
      fill: #000000; 
    }

    /* Automatic Switch for Dark Mode */
    @media (prefers-color-scheme: dark) {
      .icon-path { 
        fill: #FFFFFF; 
      }
    }
  </style>
  
  <path class="icon-path" d="M71.487,34.706c7.726,6.864 13.638,7.222 20.804,8.468c-2.586,-12.368 -5.34,-18.766 -11.585,-22.88c-5.358,-3.53 -13.863,-0.637 -15.542,-0.367c-0.175,5.614 2.142,11.028 6.323,14.779Z" style="fill-rule:nonzero;" />
  <path class="icon-path" d="M69.353,63.032c-0.453,0.33 -0.937,0.617 -1.444,0.858c-3.957,-8.039 -7.941,-27.169 -9.062,-40.809c1.713,-1.686 3.507,-3.342 5.383,-4.969c0.436,-0.38 0.687,-0.93 0.687,-1.509c0,-1.097 -0.903,-2 -2,-2c-0.482,0 -0.949,0.174 -1.312,0.491c-17.192,14.957 -28.063,31.756 -31.463,48.291c-0.554,-0.148 -1.093,-0.347 -1.61,-0.593c-10.095,-4.837 -21.831,0.968 -22.511,11.953c-0.769,12.42 7.045,29.075 16.986,28.66c2.819,-0.119 5.64,0.186 8.368,0.906c9.622,2.534 20.82,-12.062 22.728,-24.359c1.683,-10.849 -8.549,-18.995 -19.423,-16.483c-0.162,0.037 -0.325,0.063 -0.487,0.091c2.692,-12.379 9.872,-24.968 20.993,-36.776c1.309,12.044 4.654,29.039 8.717,37.971c-0.114,-0.002 -0.227,0.003 -0.341,-0.004c-3.167,-0.18 -6.32,0.556 -9.08,2.12c2.951,3.895 4.171,8.839 3.37,13.66c-0.782,4.606 -2.388,9.033 -4.74,13.07c5.89,7.66 14.63,13.17 20.98,10.17c2.49,-1.178 5.143,-1.973 7.87,-2.36c9.63,-1.35 14.14,-18.87 11.16,-30.77c-2.62,-10.5 -14.94,-14.02 -23.77,-7.61Z" style="fill-rule:nonzero;" />
</svg>
